<svg xmlns="http://www.w3.org/2000/svg" height="512" width="512" data-name="icon"><path fill="#e90d39" d="M224.002 79.999a127.43 127.43 0 00-39.997-47.997A128.575 128.575 0 00112.01 8.004a120.055 120.055 0 000 119.991l1.936 2.744M287.998 79.999a127.43 127.43 0 0139.997-47.997A128.575 128.575 0 01399.99 8.004a120.055 120.055 0 010 119.991l-1.776 2.96"/><path fill="#d0d2d3" d="M423.988 207.99V333.5a127.99 127.99 0 01-56.956 106.473l-93.273 58.636a32.278 32.278 0 01-33.758 1.12c-.64-.4-1.2-.72-1.76-1.12l-93.273-58.636a127.99 127.99 0 01-56.956-106.472V207.989A127.99 127.99 0 01216.002 80h79.995a127.99 127.99 0 01127.991 127.99z"/><path opacity=".3" fill="#f0f1f1" d="M240.001 79.999v419.73c-.64-.4-1.2-.72-1.76-1.12l-93.273-58.636a127.99 127.99 0 01-56.956-106.472V207.989A127.99 127.99 0 01216.002 80z"/><path fill="#470718" d="M224.002 295.983v-23.638a55.996 55.996 0 00-38.285-53.156l-57.708-19.199s15.999 87.994 95.993 95.993zM287.998 295.983v-23.638a55.996 55.996 0 0138.285-53.156l57.708-19.199s-15.999 87.994-95.993 95.993z"/><g fill="#1e0202"><path d="M80.013 333.485a135.806 135.806 0 0060.74 113.263l93.065 58.5A40.07 40.07 0 00256.056 512a39.557 39.557 0 0021.95-6.632l93.426-58.74a135.718 135.718 0 0060.555-113.143 8 8 0 00-7.999-8 7.903 7.903 0 00-7.511 5.6l-52.485 29.95a8 8 0 107.936 13.887l42.78-24.447a119.535 119.535 0 01-51.996 82.722l-93.401 58.772a23.998 23.998 0 01-26.806-.12l-93.057-58.532a119.695 119.695 0 01-52.189-82.842l42.75 24.447a8 8 0 007.935-13.887L96.01 331.34v-35.998l67.412 47.197a8 8 0 109.167-13.111L96.01 275.817v-35.83a8 8 0 00-15.998 0z"/><path d="M88.012 215.989a8 8 0 008-8A120.12 120.12 0 01216.001 88h79.995a120.12 120.12 0 01119.992 119.99v67.828l-76.579 53.596a8 8 0 109.167 13.11l67.412-47.172v.632a8 8 0 0015.998 0V207.99a135.142 135.142 0 00-24.318-77.394 127.943 127.943 0 00-.744-126.591 7.871 7.871 0 00-7.111-4 137.326 137.326 0 00-76.507 25.51A135.318 135.318 0 00283.102 72h-54.204a135.318 135.318 0 00-40.205-46.484A137.47 137.47 0 00112.186.005a8.511 8.511 0 00-7.12 3.999 127.767 127.767 0 00-.711 126.527 135.134 135.134 0 00-24.342 77.458 8 8 0 007.999 8zm244.67-177.5a120.791 120.791 0 0162.676-22.27 111.728 111.728 0 011.376 100.745 136.518 136.518 0 00-41.19-31.038L374.393 60.8a8 8 0 10-12.8-9.6l-21.27 28.367a135.062 135.062 0 00-38.95-7.296 118.568 118.568 0 0131.31-33.781zM104.012 64.265A112.848 112.848 0 01116.65 16.21a120.96 120.96 0 0162.675 22.27 118.568 118.568 0 0131.31 33.79 135.062 135.062 0 00-38.949 7.296L150.408 51.2a8 8 0 10-12.8 9.599l18.84 25.126a136.526 136.526 0 00-41.182 31.03 112.072 112.072 0 01-11.255-52.692zM204.164 411.559A40.117 40.117 0 00256 400.896a39.845 39.845 0 0051.836 10.663l8.128-4.64a8 8 0 001.688-1.288l15.998-15.998-11.31-11.312-15.24 15.255-7.2 4.112a23.998 23.998 0 01-35.9-20.855V335.98h-16v40.853a23.998 23.998 0 01-35.9 20.799l-8.512-4.848-16-8-7.159 14.312 15.607 7.791z"/><path d="M216.003 175.992a8 8 0 000-16h-31.998a8 8 0 000 16zM287.998 167.992a8 8 0 008 8h31.997a8 8 0 000-16h-31.998a8 8 0 00-8 8zM122.77 193.942a8 8 0 00-2.624 7.48c.16.968 18.046 94.025 103.056 102.56h.8a8 8 0 008-7.999v-23.638a63.915 63.915 0 00-43.757-60.708l-57.708-19.198a7.935 7.935 0 00-7.768 1.503zm60.435 32.87a47.94 47.94 0 0132.798 45.533v14.399c-48.797-9.287-69.051-52.044-76.443-74.49zM391.854 201.422a8 8 0 00-10.399-9.015l-57.708 19.198a63.915 63.915 0 00-43.749 60.74v23.638a8 8 0 008 8h.8c85.01-8.536 102.896-101.593 103.056-102.561zm-95.857 85.338v-14.4a47.94 47.94 0 0132.798-45.532l43.62-14.535c-7.367 22.423-27.621 65.18-76.418 74.467zM295.997 111.996h-8a8 8 0 000 16h8a8 8 0 000-16zM327.995 127.995a8 8 0 000-15.999h-8a8 8 0 000 16z"/></g></svg>